<?xml version="1.0" encoding="utf-8"?>
<!-- Generator: Adobe Illustrator 16.0.4, SVG Export Plug-In . SVG Version: 6.00 Build 0)  -->
<!DOCTYPE svg PUBLIC "-//W3C//DTD SVG 1.1//EN" "http://www.w3.org/Graphics/SVG/1.1/DTD/svg11.dtd">
<svg version="1.1" id="Layer_1" xmlns="http://www.w3.org/2000/svg" xmlns:xlink="http://www.w3.org/1999/xlink" x="0px" y="0px"
	 width="800px" height="650px" viewBox="0 0 800 650" enable-background="new 0 0 800 650" xml:space="preserve">
<path fill="none" stroke="#000000" stroke-width="5.8415" stroke-miterlimit="10" d="M93.689,236.395"/>
<g>
	<path d="M157.893,452.228c0,0-1.782,1.059-4.966,2.618c-3.182,1.569-7.765,3.648-13.333,5.836
		c-2.785,1.091-5.814,2.218-9.035,3.338c-3.223,1.108-6.63,2.24-10.176,3.318c-7.089,2.169-14.721,4.167-22.41,5.919
		c-7.692,1.735-15.441,3.218-22.773,4.312c-3.664,0.557-7.228,0.995-10.613,1.385c-3.389,0.372-6.609,0.658-9.593,0.871
		c-5.969,0.417-11.001,0.506-14.55,0.454c-3.547-0.044-5.611-0.236-5.611-0.236s1.781-1.062,4.964-2.627
		c3.181-1.573,7.763-3.657,13.331-5.848c2.785-1.091,5.814-2.218,9.035-3.34c3.224-1.104,6.63-2.24,10.177-3.313
		c7.089-2.165,14.723-4.159,22.414-5.901c7.694-1.725,15.444-3.204,22.777-4.294c3.665-0.553,7.228-0.996,10.614-1.382
		c3.389-0.374,6.609-0.659,9.592-0.872c5.968-0.421,11-0.514,14.547-0.466C155.829,452.039,157.893,452.228,157.893,452.228z"/>
</g>
<g>
	<path d="M292.1,528.387c0,0,1.089,1.654,2.705,4.625c1.625,2.968,3.785,7.25,6.071,12.467c1.141,2.609,2.322,5.45,3.5,8.474
		c1.166,3.026,2.359,6.228,3.5,9.562c2.297,6.667,4.434,13.859,6.326,21.115c1.876,7.26,3.502,14.585,4.732,21.527
		c0.625,3.469,1.13,6.848,1.583,10.06c0.436,3.215,0.782,6.271,1.05,9.107c0.53,5.672,0.714,10.465,0.729,13.85
		c0.024,3.383-0.128,5.358-0.128,5.358s-1.092-1.653-2.712-4.623c-1.629-2.967-3.794-7.247-6.083-12.464
		c-1.141-2.609-2.321-5.45-3.501-8.474c-1.162-3.027-2.36-6.227-3.497-9.563c-2.293-6.667-4.427-13.86-6.309-21.119
		c-1.866-7.263-3.488-14.588-4.714-21.532c-0.621-3.47-1.13-6.848-1.579-10.06c-0.438-3.215-0.783-6.272-1.052-9.107
		c-0.532-5.671-0.721-10.463-0.741-13.847C291.951,530.361,292.1,528.387,292.1,528.387z"/>
</g>
<circle fill="none" stroke="#000000" stroke-width="11.683" stroke-miterlimit="10" cx="38.448" cy="479.082" r="31.325"/>
<path d="M338.601,42.595c-6.862,11.706-21.914,15.63-33.617,8.769c-11.708-6.866-15.63-21.915-8.768-33.62
	c6.862-11.703,21.911-15.631,33.617-8.766C341.539,15.84,345.463,30.892,338.601,42.595z"/>
<path d="M336.959,43.534C202.639,43.525,93,105.32,93,239.64v0.413l452.657-15.93C545.669,89.797,471.281,43.545,336.959,43.534z
	 M105,230.715c0-116.964,109.265-175.559,226.231-175.554c116.967,0.012,202.896,44.801,202.884,161.769L105,231.075V230.715z"/>
<path d="M94.949,235.738l-0.2,0.336c-67.936,115.872,9.322,198.651,125.199,266.586c115.872,67.939,191.258,79.378,259.214-36.525
	L94.949,235.738z M223.018,490.796c-93.721-54.952-176.503-142.672-121.554-236.398l26.413,17.573l336.04,198.69
	C409.258,563.889,316.738,545.742,223.018,490.796z"/>
<text transform="matrix(1 0 0 1 479.1641 452.2295)" stroke="#000000" stroke-width="2.9208" stroke-miterlimit="10" font-family="'SortsMillGoudy-Italic'" font-size="128.513">Kabin</text>
<text transform="matrix(1 0 0 1 312.8652 340.8633)" stroke="#000000" stroke-width="2.9208" stroke-miterlimit="10" font-family="'SortsMillGoudy-Italic'" font-size="128.513">Frodos </text>
</svg>
